<svg width="390" height="128" viewBox="0 0 390 128" fill="none" xmlns="http://www.w3.org/2000/svg">
    <path fill-rule="evenodd" clip-rule="evenodd" d="M390 0L373.75 11.7987C357.5 23.5974 325 47.1947 292.5 51.9142C260 56.6337 227.5 42.4752 195 40.1155C162.5 37.7558 130 47.1947 97.5 54.2739C65 61.3531 32.5 66.0726 16.25 68.4323L0 70.7921V127.426H16.25C32.5 127.426 65 127.426 97.5 127.426C130 127.426 162.5 127.426 195 127.426C227.5 127.426 260 127.426 292.5 127.426C325 127.426 357.5 127.426 373.75 127.426H390V0Z" fill="#FFF2E1"/>
</svg>
