<svg width="1440" height="390" viewBox="0 0 1440 390" fill="none" xmlns="http://www.w3.org/2000/svg">
<path fill-rule="evenodd" clip-rule="evenodd" d="M1467 0L1405.25 36.1111C1343.5 72.2222 1220 144.444 1096.5 158.889C973 173.333 849.5 130 726 122.778C602.5 115.556 479 144.444 355.5 166.111C232 187.778 108.5 202.222 46.75 209.444L-15 216.667V390H46.75C108.5 390 232 390 355.5 390C479 390 602.5 390 726 390C849.5 390 973 390 1096.5 390C1220 390 1343.5 390 1405.25 390H1467V0Z" fill="#FFF2E1"/>
</svg>
