<svg width="60" height="61" viewBox="0 0 60 61" fill="none" xmlns="http://www.w3.org/2000/svg">
<path d="M47.9019 11.2356C43.3095 6.5647 37.268 3.6589 30.8066 3.0132C24.3453 2.36751 17.8638 4.02187 12.4665 7.69444C7.06917 11.367 3.0899 16.8306 1.20663 23.1543C-0.676647 29.478 -0.347394 36.2708 2.13824 42.3752C4.62387 48.4796 9.11213 53.518 14.8384 56.6321C20.5646 59.7462 27.1746 60.7433 33.5421 59.4535C39.9096 58.1637 45.6409 54.6669 49.7593 49.5587C53.8777 44.4505 56.1286 38.047 56.1285 31.4391C56.1377 27.6852 55.4154 23.9667 54.0033 20.4988C52.5912 17.0309 50.5174 13.8824 47.9019 11.2356Z" fill="#074EA3"/>
<path d="M56.3509 28.8549C55.7594 24.2889 54.2388 19.8986 51.8861 15.9644C50.8318 14.1361 49.53 12.4271 47.1349 12.2549L41.5898 11.8839C39.9811 11.7824 38.3987 12.3352 37.1904 13.4209C35.9821 14.5066 35.2469 16.0362 35.1465 17.6734L34.8211 23.1714C34.7312 24.718 35.2172 26.2422 36.1821 27.4404C37.1471 28.6386 38.5202 29.4227 40.0278 29.6366L41.5898 29.875C42.3136 29.9756 43.0003 30.2619 43.5855 30.7068C44.1707 31.1518 44.6351 31.7409 44.9351 32.4187L47.7077 41.189V41.2685C47.8604 41.6531 48.1207 41.9836 48.4562 42.2191C48.7917 42.4546 49.1877 42.5847 49.5951 42.5934C49.9882 42.5962 50.3741 42.4857 50.7081 42.2747C51.0421 42.0637 51.3106 41.7608 51.4826 41.401C51.9646 40.5265 52.5222 39.6974 53.1488 38.9236C54.9581 36.5919 57.1319 33.7568 56.3509 28.8549Z" fill="#FBB040"/>
<path d="M31.815 3.30088C31.7637 3.13886 31.6677 2.99527 31.5385 2.88722C31.4092 2.77917 31.2522 2.71122 31.086 2.69148C29.0561 2.4863 27.0111 2.4863 24.9812 2.69148C24.8426 2.71103 24.7112 2.76633 24.5996 2.85213C24.488 2.93793 24.3998 3.05136 24.3433 3.18166C23.9528 4.05604 23.1328 6.20225 23.8487 7.3151C23.9887 7.53286 24.1829 7.70892 24.4116 7.82529C24.6403 7.94167 24.8952 7.99419 25.1504 7.97751C26.8946 7.97751 30.5133 5.08941 31.5807 4.20178C31.698 4.08848 31.782 3.94422 31.8233 3.78514C31.8647 3.62606 31.8618 3.45839 31.815 3.30088Z" fill="#FBB040"/>
<path d="M25.2537 39.1377C25.5127 38.574 25.6287 37.9532 25.5911 37.3321C25.5536 36.7109 25.3636 36.1093 25.0386 35.5822C24.7136 35.0551 24.264 34.6193 23.7308 34.3147C23.1976 34.01 22.5979 33.8463 21.9865 33.8384H19.0447C18.8408 33.8365 18.6386 33.8007 18.446 33.7325L11.5731 31.4935C11.0499 31.3192 10.4946 31.2682 9.94916 31.3444C9.40376 31.4206 8.88254 31.6221 8.42486 31.9334C7.96719 32.2448 7.58504 32.658 7.30734 33.1418C7.02965 33.6257 6.86365 34.1674 6.82191 34.7261L6.4184 39.7737C6.36891 40.4178 6.48442 41.064 6.75363 41.6492C7.02284 42.2343 7.43659 42.7384 7.95441 43.1122L11.1305 45.3909C11.4854 45.6461 11.7464 46.0143 11.8724 46.4375L12.9789 50.1338C13.2488 51.0193 13.8337 51.7705 14.619 52.2402L20.3724 55.6848C20.7063 55.8905 21.0886 56.0004 21.4789 56.0027C21.8385 55.9972 22.1911 55.901 22.5052 55.7227C22.8192 55.5443 23.0849 55.2895 23.2784 54.9809C23.4719 54.6724 23.5872 54.3198 23.6139 53.9548C23.6406 53.5898 23.5779 53.2237 23.4314 52.8894L21.4789 48.5175C21.3537 48.2483 21.2888 47.9542 21.2888 47.6564C21.2888 47.3586 21.3537 47.0644 21.4789 46.7952L25.2537 39.1377Z" fill="#F7941E"/>
<path d="M20.7367 10.9156C19.435 9.69673 17.938 10.5976 16.8316 11.313C16.1421 11.8429 15.3312 12.1849 14.4756 12.3066H14.3194C14.6315 11.8043 14.9796 11.3261 15.3607 10.8758L15.7773 10.3459C16.6233 9.2463 17.3783 7.19281 16.5713 6.1727C16.3489 5.90908 16.039 5.73782 15.7007 5.69141C15.3623 5.64501 15.019 5.72671 14.7359 5.921C13.4342 6.62315 5.62417 11.7502 2.34393 19.262C0.912078 22.4813 1.56288 25.9523 4.21831 29.2909C5.46331 30.8206 6.91887 32.1592 8.53991 33.2654C8.67597 33.3535 8.83424 33.3995 8.9955 33.3978C9.10698 33.4002 9.21775 33.3791 9.3208 33.3358C9.42386 33.2925 9.51696 33.2279 9.59426 33.1461C9.72906 33.006 9.81288 32.8233 9.83182 32.6282C9.85075 32.4331 9.80369 32.2372 9.69842 32.073C9.43588 31.7537 9.27629 31.3599 9.24136 30.9451C9.20642 30.5303 9.29785 30.1146 9.50318 29.7546C9.79532 29.0611 9.92883 28.3091 9.89367 27.5554C9.85022 26.9999 9.68569 26.4614 9.41205 25.9788C10.4143 26.6412 11.2995 27.1182 12.0154 26.8929C13.0047 26.5882 13.4733 25.1839 14.1372 23.2497C14.4576 22.1453 14.894 21.0793 15.4388 20.0701C15.9855 19.2355 16.5323 19.1957 17.5085 19.1162C18.2653 19.0797 19.0119 18.9232 19.7213 18.6526C20.3179 18.3258 20.8253 17.8533 21.198 17.2775C21.5706 16.7017 21.7968 16.0406 21.8561 15.3537C22.0311 14.5767 22.0207 13.7684 21.826 12.9963C21.6312 12.2242 21.2577 11.5107 20.7367 10.9156Z" fill="#F7941E"/>
<path d="M48.3055 22.9481C48.0811 22.9481 47.8659 22.8574 47.7073 22.6959C47.5486 22.5344 47.4594 22.3154 47.4594 22.087V0.889786C47.4849 0.681476 47.5844 0.489837 47.739 0.35089C47.8936 0.211942 48.0928 0.135254 48.299 0.135254C48.5053 0.135254 48.7044 0.211942 48.8591 0.35089C49.0137 0.489837 49.1131 0.681476 49.1386 0.889786V22.087C49.1386 22.3131 49.0513 22.5301 48.8954 22.6912C48.7395 22.8524 48.5277 22.9446 48.3055 22.9481Z" fill="white"/>
<path d="M56.791 4.72964L59.7719 1.43084C59.8842 1.31007 59.9592 1.15833 59.9874 0.994516C60.0157 0.830704 59.996 0.662036 59.9308 0.509533C59.8656 0.35703 59.7578 0.227422 59.6207 0.136825C59.4837 0.0462284 59.3235 -0.00133889 59.1601 2.86806e-05H48.252C48.0298 1.9204e-06 47.8166 0.0889037 47.6583 0.247544C47.4999 0.406184 47.4093 0.621832 47.4059 0.847915V8.61138C47.4059 8.72385 47.4278 8.83519 47.4705 8.93893C47.5132 9.04267 47.5757 9.13675 47.6545 9.21566C47.7332 9.29457 47.8266 9.35674 47.9292 9.39856C48.0318 9.44039 48.1415 9.46103 48.252 9.45927H59.1601C59.3235 9.46064 59.4837 9.41305 59.6207 9.32245C59.7578 9.23186 59.8656 9.10225 59.9308 8.94975C59.996 8.79724 60.0157 8.6286 59.9874 8.46478C59.9592 8.30097 59.8842 8.14923 59.7719 8.02846L56.791 4.72964Z" fill="#FBB040"/>
<path d="M21.1011 42.9792C20.9526 42.9779 20.8071 42.9368 20.6791 42.86C20.5512 42.7833 20.4453 42.6736 20.3722 42.542L6.52229 17.5426C6.45841 17.4178 6.42505 17.2792 6.42505 17.1385C6.42505 16.9978 6.45841 16.8592 6.52229 16.7345L7.71982 14.2968C7.80542 14.1239 7.94577 13.9855 8.11817 13.9038C8.29057 13.822 8.48498 13.8018 8.67006 13.8463L45.3514 22.8154C45.4618 22.8425 45.5658 22.8916 45.6574 22.9598C45.749 23.028 45.8264 23.114 45.8851 23.2128L48.4885 27.757C48.6026 27.9573 48.6353 28.195 48.5796 28.4194C48.5467 28.5309 48.4916 28.6344 48.4177 28.7233C48.3438 28.8122 48.2527 28.8846 48.1501 28.9361L25.2014 41.0847L21.5047 42.8732C21.3835 42.9485 21.243 42.9854 21.1011 42.9792ZM8.21446 17.0524L21.4526 40.9655L24.4204 39.5214L46.549 27.7967L44.5574 24.3522L8.91738 15.7276L8.21446 17.0524Z" fill="white"/>
<path d="M5.46918 10.4273C4.65252 10.4246 3.85345 10.6687 3.17316 11.1286C2.49288 11.5885 1.96199 12.2435 1.64768 13.0106C1.33337 13.7778 1.2498 14.6226 1.40754 15.4381C1.56529 16.2537 1.95725 17.0032 2.5338 17.5919C3.11036 18.1805 3.84555 18.5818 4.64634 18.745C5.44712 18.9081 6.27746 18.8257 7.03221 18.5082C7.78696 18.1907 8.43219 17.6525 8.88618 16.9616C9.34016 16.2706 9.5825 15.4581 9.5825 14.627C9.58251 13.5154 9.14953 12.4492 8.3785 11.662C7.60748 10.8748 6.5613 10.4308 5.46918 10.4273Z" fill="#013177"/>
<path d="M47.7615 20.9463C46.948 20.9463 46.1527 21.1918 45.4763 21.6518C44.7999 22.1118 44.2726 22.7657 43.9613 23.5306C43.65 24.2956 43.5685 25.1374 43.7272 25.9495C43.8859 26.7616 44.2777 27.5075 44.8529 28.093C45.4282 28.6785 46.1611 29.0772 46.959 29.2387C47.7569 29.4003 48.584 29.3174 49.3356 29.0005C50.0872 28.6836 50.7296 28.1471 51.1816 27.4586C51.6336 26.7701 51.8748 25.9607 51.8748 25.1327C51.8714 24.0235 51.4369 22.9607 50.6663 22.1763C49.8956 21.392 48.8514 20.9498 47.7615 20.9463Z" fill="#013177"/>
<path d="M22.3771 37.9312C21.5636 37.9312 20.7683 38.1767 20.0919 38.6367C19.4155 39.0967 18.8882 39.7506 18.5769 40.5155C18.2656 41.2805 18.1841 42.1222 18.3428 42.9343C18.5015 43.7464 18.8933 44.4924 19.4685 45.0779C20.0438 45.6634 20.7767 46.0621 21.5746 46.2236C22.3725 46.3851 23.1996 46.3022 23.9512 45.9854C24.7028 45.6685 25.3452 45.1319 25.7972 44.4435C26.2492 43.755 26.4904 42.9456 26.4904 42.1176C26.487 41.0084 26.0525 39.9456 25.2819 39.1612C24.5112 38.3769 23.467 37.9346 22.3771 37.9312Z" fill="#013177"/>
</svg>
