<svg width="70" height="70" viewBox="0 0 70 70" fill="none" xmlns="http://www.w3.org/2000/svg">
<path d="M50.2912 15.5585C50.2072 15.3562 50.0491 15.1935 49.8492 15.1039L35.2395 8.91662C35.0402 8.83214 34.8155 8.82985 34.6145 8.91026C34.4135 8.99067 34.2523 9.14728 34.1662 9.34594L29.1154 21.2281C29.0397 21.4274 29.0397 21.6476 29.1154 21.8469C29.1534 21.9477 29.2124 22.0393 29.2886 22.1156C29.3648 22.1918 29.4564 22.2508 29.5573 22.2888L44.1796 28.4509C44.2804 28.49 44.3872 28.5114 44.4953 28.514C44.6552 28.5119 44.8112 28.4646 44.9453 28.3774C45.0794 28.2902 45.1861 28.1669 45.2529 28.0216L50.3038 16.1394C50.3662 15.95 50.3617 15.745 50.2912 15.5585Z" fill="#F7941E"/>
<path d="M45.2523 27.4266C45.172 27.2291 45.0181 27.0706 44.823 26.9846L18.7983 15.9611C18.7008 15.9177 18.5954 15.8945 18.4887 15.8927C18.3819 15.8909 18.2759 15.9106 18.1769 15.9507C18.0779 15.9907 17.988 16.0503 17.9126 16.1259C17.8371 16.2014 17.7776 16.2914 17.7377 16.3904L9.69414 35.3312C9.61382 35.5324 9.61503 35.7571 9.69753 35.9574C9.78004 36.1578 9.93736 36.3181 10.1361 36.4045L36.1481 47.428C36.2462 47.477 36.3541 47.5029 36.4638 47.5038C36.5682 47.5217 36.675 47.5217 36.7794 47.5038C36.9757 47.4152 37.1328 47.2581 37.2214 47.0618L45.2523 28.121C45.3015 28.0119 45.3269 27.8935 45.3269 27.7738C45.3269 27.6541 45.3015 27.5357 45.2523 27.4266Z" fill="#FBB040"/>
<path d="M36.9961 9.64193L31.3242 23.0234L36.4048 25.1769L42.0766 11.7954L36.9961 9.64193Z" fill="#FBB040"/>
<path d="M33.5868 54.2965C33.478 54.3014 33.3696 54.2798 33.2711 54.2333C33.1732 54.192 33.0844 54.1317 33.0098 54.056C32.9352 53.9803 32.8763 53.8906 32.8364 53.792C32.7965 53.6935 32.7764 53.5881 32.7774 53.4818C32.7783 53.3755 32.8002 53.2704 32.8418 53.1726L52.9316 5.71965C53.029 5.53944 53.1903 5.40216 53.3837 5.33476C53.5771 5.26737 53.7888 5.27473 53.9771 5.35542C54.1653 5.43611 54.3167 5.58427 54.4013 5.77083C54.4858 5.95738 54.4976 6.16885 54.4343 6.36365L34.3318 53.7787C34.2752 53.9307 34.1735 54.0617 34.0403 54.1542C33.9072 54.2468 33.7489 54.2964 33.5868 54.2965Z" fill="#013177"/>
<path d="M69.5087 11.9079L53.9647 5.31647C53.8652 5.27264 53.7577 5.25 53.649 5.25C53.5403 5.25 53.4328 5.27264 53.3333 5.31647C53.1358 5.39676 52.9773 5.55072 52.8914 5.74579L51.2877 9.53395C51.2032 9.73331 51.2009 9.95799 51.2814 10.159C51.3618 10.3601 51.5184 10.5212 51.717 10.6073L67.2737 17.1987C67.3742 17.2389 67.4812 17.2603 67.5894 17.2618C67.6934 17.259 67.796 17.2376 67.8925 17.1987C67.9933 17.1607 68.0849 17.1016 68.1611 17.0254C68.2373 16.9492 68.2964 16.8576 68.3344 16.7567L69.9381 12.9685C70.0186 12.7706 70.0189 12.5491 69.9387 12.3511C69.8585 12.153 69.7043 11.994 69.5087 11.9079Z" fill="#074EA3"/>
<path d="M23.4511 17.9327L14.7832 38.3828L19.8637 40.5362L28.5317 20.0862L23.4511 17.9327Z" fill="#F7941E"/>
<path d="M36.7814 45.9373L4.05174 32.0474C3.84917 31.966 3.62295 31.966 3.42038 32.0474C3.22415 32.136 3.067 32.2932 2.97842 32.4894L0.0615406 39.2954C0.0208995 39.3935 0 39.4986 0 39.6048C0 39.7109 0.0208995 39.8161 0.0615406 39.9141C0.101552 40.0138 0.161343 40.1044 0.237299 40.1803C0.313256 40.2563 0.403812 40.3161 0.5035 40.3561L33.2458 54.246C33.3443 54.2924 33.4527 54.3141 33.5615 54.3092C33.6617 54.3274 33.7643 54.3274 33.8645 54.3092C33.9642 54.2692 34.0548 54.2094 34.1307 54.1334C34.2067 54.0575 34.2665 53.9669 34.3065 53.8672L37.1981 47.0611C37.2503 46.961 37.2809 46.851 37.288 46.7383C37.2951 46.6256 37.2784 46.5127 37.2392 46.4068C37.1999 46.3009 37.1389 46.2044 37.0601 46.1235C36.9812 46.0427 36.8863 45.9793 36.7814 45.9373Z" fill="#074EA3"/>
<path d="M37.6526 43.8938C35.7554 43.0911 33.6629 42.8688 31.6395 43.2552C29.6161 43.6415 27.7527 44.619 26.2848 46.0642C24.8168 47.5093 23.8103 49.3573 23.3924 51.3744C22.9745 53.3915 23.164 55.4872 23.937 57.3967C24.7099 59.3061 26.0316 60.9435 27.735 62.1019C29.4383 63.2603 31.4469 63.8877 33.5068 63.9048C35.5667 63.9219 37.5854 63.3279 39.3077 62.1979C41.0301 61.068 42.3787 59.4527 43.1833 57.5564C43.7179 56.2962 43.999 54.943 44.0103 53.5742C44.0217 52.2053 43.7631 50.8477 43.2495 49.5788C42.7358 48.3099 41.9771 47.1548 41.0168 46.1793C40.0564 45.2038 38.9132 44.4272 37.6526 43.8938Z" fill="#013177"/>
<path d="M35.0266 50.0781C34.3525 49.7937 33.6092 49.7155 32.8906 49.8535C32.1721 49.9915 31.5106 50.3394 30.9898 50.8533C30.469 51.3672 30.1123 52.024 29.9647 52.7406C29.8171 53.4573 29.8854 54.2016 30.1607 54.8794C30.4361 55.5573 30.9063 56.1382 31.5118 56.5489C32.1174 56.9596 32.8311 57.1815 33.5627 57.1865C34.2943 57.1916 35.0111 56.9797 35.6222 56.5775C36.2334 56.1753 36.7117 55.6009 36.9964 54.9269C37.1856 54.4792 37.2847 53.9986 37.2881 53.5126C37.2915 53.0266 37.1991 52.5447 37.0161 52.0944C36.8332 51.6441 36.5633 51.2343 36.222 50.8883C35.8806 50.5423 35.4744 50.267 35.0266 50.0781Z" fill="#074EA3"/>
</svg>
