<svg width="71" height="70" viewBox="0 0 71 70" fill="none" xmlns="http://www.w3.org/2000/svg">
<path d="M69.5954 11.2422H16.3954C15.8825 11.2422 15.4668 11.6579 15.4668 12.1708V59.2279C15.4668 59.7407 15.8825 60.1565 16.3954 60.1565H69.5954C70.1082 60.1565 70.5239 59.7407 70.5239 59.2279V12.1708C70.5239 11.6579 70.1082 11.2422 69.5954 11.2422Z" fill="#074EA3"/>
<path d="M70.2663 11.5289L61.6949 3.12885C61.5249 2.95695 61.2938 2.85935 61.052 2.85742H24.9949C24.7531 2.85935 24.522 2.95695 24.352 3.12885L15.7806 11.5289C15.6492 11.6559 15.559 11.8194 15.5214 11.9982C15.4839 12.1771 15.5008 12.3631 15.57 12.5322C15.6392 12.7013 15.7575 12.8459 15.9096 12.9471C16.0617 13.0484 16.2407 13.1017 16.4234 13.1003H69.6235C69.8062 13.1017 69.9852 13.0484 70.1373 12.9471C70.2894 12.8459 70.4077 12.7013 70.4769 12.5322C70.5461 12.3631 70.563 12.1771 70.5255 11.9982C70.4879 11.8194 70.3977 11.6559 70.2663 11.5289Z" fill="#013177"/>
<path d="M59.3813 47.1277C58.1032 47.1277 56.8772 46.6209 55.972 45.7185C55.0669 44.816 54.5565 43.5915 54.5527 42.3134V36.0848C54.5527 35.9629 54.5768 35.8421 54.6234 35.7295C54.6701 35.6168 54.7385 35.5145 54.8247 35.4282C54.9109 35.342 55.0133 35.2736 55.126 35.2269C55.2386 35.1803 55.3594 35.1563 55.4813 35.1563H63.2813C63.4032 35.1562 63.524 35.1803 63.6367 35.2269C63.7493 35.2736 63.8517 35.342 63.9379 35.4282C64.0241 35.5145 64.0925 35.6168 64.1392 35.7295C64.1859 35.8421 64.2099 35.9629 64.2099 36.0848V42.3134C64.2061 43.5915 63.6957 44.816 62.7906 45.7185C61.8855 46.6209 60.6595 47.1277 59.3813 47.1277ZM56.3956 36.9991V42.3134C56.3994 43.1028 56.7156 43.8585 57.2751 44.4154C57.8346 44.9722 58.5919 45.2848 59.3813 45.2848C60.1707 45.2848 60.928 44.9722 61.4875 44.4154C62.047 43.8585 62.3632 43.1028 62.367 42.3134V36.9991H56.3956Z" fill="#F7941E"/>
<path d="M63.2791 54.9867H55.4791C55.3484 55.003 55.2158 54.9913 55.0901 54.9525C54.9643 54.9136 54.8482 54.8485 54.7495 54.7613C54.6508 54.6742 54.5718 54.5671 54.5177 54.4471C54.4635 54.3271 54.4355 54.1969 54.4355 54.0653C54.4355 53.9336 54.4635 53.8035 54.5177 53.6835C54.5718 53.5635 54.6508 53.4564 54.7495 53.3692C54.8482 53.2821 54.9643 53.2169 55.0901 53.1781C55.2158 53.1392 55.3484 53.1276 55.4791 53.1439H63.2791C63.4097 53.1276 63.5423 53.1392 63.6681 53.1781C63.7939 53.2169 63.91 53.2821 64.0086 53.3692C64.1073 53.4564 64.1863 53.5635 64.2405 53.6835C64.2946 53.8035 64.3226 53.9336 64.3226 54.0653C64.3226 54.1969 64.2946 54.3271 64.2405 54.4471C64.1863 54.5671 64.1073 54.6742 64.0086 54.7613C63.91 54.8485 63.7939 54.9136 63.6681 54.9525C63.5423 54.9913 63.4097 55.003 63.2791 54.9867Z" fill="#F7941E"/>
<path d="M59.3797 54.9851C59.2578 54.9851 59.137 54.9611 59.0244 54.9145C58.9117 54.8678 58.8094 54.7994 58.7231 54.7132C58.6369 54.6269 58.5685 54.5246 58.5219 54.4119C58.4752 54.2993 58.4512 54.1785 58.4512 54.0566V46.2137C58.4512 45.9674 58.549 45.7313 58.7231 45.5571C58.8973 45.383 59.1335 45.2852 59.3797 45.2852C59.626 45.2852 59.8622 45.383 60.0363 45.5571C60.2105 45.7313 60.3083 45.9674 60.3083 46.2137V54.0566C60.3083 54.1785 60.2843 54.2993 60.2376 54.4119C60.191 54.5246 60.1226 54.6269 60.0363 54.7132C59.9501 54.7994 59.8477 54.8678 59.7351 54.9145C59.6224 54.9611 59.5017 54.9851 59.3797 54.9851Z" fill="#F7941E"/>
<path d="M47.681 13.0273H38.1953V60.2131H47.681V13.0273Z" fill="#FBB040"/>
<path d="M35.4088 55.4581C35.2866 55.4599 35.1653 55.4367 35.0523 55.3901C34.9393 55.3434 34.837 55.2742 34.7517 55.1867L26.5802 47.001C26.4925 46.917 26.4227 46.8161 26.375 46.7044C26.3273 46.5926 26.3027 46.4725 26.3027 46.351C26.3027 46.2295 26.3273 46.1093 26.375 45.9976C26.4227 45.8859 26.4925 45.785 26.5802 45.701C26.7538 45.5308 26.9872 45.4355 27.2302 45.4355C27.4733 45.4355 27.7067 45.5308 27.8802 45.701L36.066 53.8867C36.1912 54.0172 36.2756 54.1815 36.3088 54.3594C36.342 54.5373 36.3225 54.721 36.2527 54.8879C36.1829 55.0548 36.0658 55.1977 35.9159 55.299C35.766 55.4003 35.5897 55.4556 35.4088 55.4581Z" fill="white"/>
<path d="M46.5106 60.6418L37.2106 51.3417C36.5229 50.6996 35.6127 50.3497 34.672 50.3658C33.7312 50.3819 32.8335 50.7627 32.1683 51.428C31.503 52.0933 31.1221 52.991 31.106 53.9317C31.0899 54.8724 31.4398 55.7827 32.082 56.4703L41.382 65.8132C41.7196 66.1504 42.1206 66.4175 42.562 66.5989C43.0033 66.7803 43.4762 66.8726 43.9534 66.8703C44.4287 66.8739 44.8998 66.7821 45.339 66.6006C45.7782 66.419 46.1766 66.1513 46.5106 65.8132C46.8535 65.4755 47.1259 65.073 47.3118 64.6291C47.4977 64.1852 47.5934 63.7087 47.5934 63.2275C47.5934 62.7462 47.4977 62.2697 47.3118 61.8258C47.1259 61.3819 46.8535 60.9794 46.5106 60.6418Z" fill="#013177"/>
<path d="M15.5228 25.8131C15.7616 25.8021 15.9869 25.6994 16.1519 25.5265C16.3169 25.3535 16.4088 25.1236 16.4085 24.8846V20.0417C16.4073 19.7956 16.3099 19.5598 16.1371 19.3846C16.0479 19.2992 15.9426 19.2325 15.8273 19.1884C15.712 19.1442 15.5891 19.1235 15.4657 19.1274C11.3219 19.2515 7.38932 20.9848 4.50209 23.9598C1.61485 26.9348 0 30.9175 0 35.0631C0 39.2088 1.61485 43.1914 4.50209 46.1664C7.38932 49.1414 11.3219 50.8748 15.4657 50.9988C15.7095 51 15.9445 50.908 16.1228 50.7417C16.2956 50.5665 16.393 50.3306 16.3942 50.0846V45.2417C16.3961 45.1235 16.3747 45.0061 16.3312 44.8962C16.2877 44.7863 16.223 44.686 16.1408 44.6011C16.0585 44.5162 15.9604 44.4483 15.8519 44.4014C15.7434 44.3544 15.6267 44.3293 15.5085 44.3274C13.0458 44.3274 10.6839 43.3491 8.94254 41.6077C7.20113 39.8663 6.22282 37.5044 6.22282 35.0417C6.22282 32.579 7.20113 30.2171 8.94254 28.4757C10.6839 26.7343 13.0458 25.756 15.5085 25.756L15.5228 25.8131Z" fill="#F7941E"/>
<path d="M27.1811 23.7562C25.6558 22.2134 23.8275 21.003 21.8114 20.2015C19.7953 19.4 17.6351 19.0247 15.4668 19.0991V25.8134C17.9295 25.8134 20.2914 26.7917 22.0328 28.5331C23.7742 30.2745 24.7525 32.6364 24.7525 35.0991C24.7525 37.5618 23.7742 39.9237 22.0328 41.6651C20.2914 43.4065 17.9295 44.3848 15.4668 44.3848V51.0562H15.8954C17.9876 51.0617 20.0601 50.6516 21.9925 49.8497C23.9249 49.0477 25.6789 47.87 27.1525 46.3848C28.6437 44.9028 29.8276 43.1411 30.6364 41.2005C31.4452 39.2599 31.8629 37.1788 31.8655 35.0764C31.8682 32.9741 31.4558 30.8919 30.6519 28.9493C29.848 27.0067 28.6685 25.242 27.1811 23.7562Z" fill="#FBB040"/>
<path d="M45.7096 2.87109H40.1525L38.1953 13.0282H47.6667L45.7096 2.87109Z" fill="#F7941E"/>
</svg>
