<svg width="70" height="68" viewBox="0 0 70 68" fill="none" xmlns="http://www.w3.org/2000/svg">
<path d="M58.2527 10.3184H18.199C16.4396 10.3226 14.7535 11.0244 13.5109 12.27C12.2682 13.5156 11.5703 15.2033 11.5703 16.9628V64.3487C11.5703 64.6182 11.6774 64.8767 11.868 65.0673C12.0585 65.2578 12.317 65.3649 12.5865 65.3649H63.9278C64.1946 65.3608 64.4491 65.2519 64.6363 65.0618C64.8235 64.8717 64.9284 64.6155 64.9283 64.3487V16.9628C64.9284 16.0876 64.7555 15.221 64.4196 14.4128C64.0837 13.6047 63.5915 12.8708 62.9712 12.2534C62.3509 11.636 61.6148 11.1473 60.805 10.8152C59.9953 10.4831 59.1279 10.3143 58.2527 10.3184Z" fill="#074EA3"/>
<path d="M19.3544 12.3163C18.9978 12.3163 18.6558 12.1746 18.4036 11.9225C18.1515 11.6703 18.0099 11.3283 18.0099 10.9718V3.37378C18.0099 3.01719 18.1515 2.67519 18.4036 2.42305C18.6558 2.17091 18.9978 2.0293 19.3544 2.0293C19.7109 2.0293 20.0529 2.17091 20.3051 2.42305C20.5572 2.67519 20.6989 3.01719 20.6989 3.37378V10.9249C20.7074 11.1059 20.6788 11.2868 20.6149 11.4564C20.551 11.6259 20.453 11.7806 20.3271 11.9109C20.2012 12.0413 20.0499 12.1444 19.8826 12.2141C19.7153 12.2839 19.5356 12.3186 19.3544 12.3163Z" fill="#013177"/>
<path d="M57.2801 12.3172C57.1022 12.3193 56.9257 12.286 56.7607 12.2194C56.5958 12.1527 56.4457 12.054 56.3192 11.929C56.1927 11.8039 56.0923 11.655 56.0237 11.4908C55.9552 11.3267 55.9199 11.1505 55.9199 10.9727V3.37467C55.9558 3.04108 56.1138 2.73254 56.3634 2.50835C56.613 2.28416 56.9367 2.16016 57.2722 2.16016C57.6077 2.16016 57.9314 2.28416 58.1811 2.50835C58.4307 2.73254 58.5886 3.04108 58.6246 3.37467V10.9258C58.6309 11.1062 58.6007 11.2861 58.536 11.4547C58.4712 11.6233 58.3732 11.7771 58.2477 11.907C58.1223 12.0368 57.9719 12.1401 57.8056 12.2106C57.6394 12.281 57.4606 12.3173 57.2801 12.3172Z" fill="#013177"/>
<path d="M46.9983 38.3164H29.1602V51.8083H46.9983V38.3164Z" fill="white"/>
<path d="M29.1565 38.3164H11.3184V51.8083H29.1565V38.3164Z" fill="#013177"/>
<path d="M47.1194 24.8242H29.2812V38.3162H47.1194V24.8242Z" fill="#013177"/>
<path d="M47.1194 51.8242H29.2812V65.3162H47.1194V51.8242Z" fill="#013177"/>
<path d="M64.8049 38.3164H46.9668V51.8083H64.8049V38.3164Z" fill="#013177"/>
<path d="M47.9017 33.2164L41.914 27.2287C41.7222 27.0396 41.4642 26.933 41.1949 26.9316C40.9303 26.9337 40.6773 27.0406 40.4913 27.2287L20.3238 47.3024L11.2406 38.2192C11.0506 38.033 10.7952 37.9287 10.5292 37.9287C10.2632 37.9287 10.0079 38.033 9.8179 38.2192L4.36172 43.6754C4.26596 43.7688 4.19024 43.8808 4.13917 44.0044C4.0881 44.128 4.06275 44.2608 4.06467 44.3945C4.06182 44.5284 4.08675 44.6615 4.13787 44.7852C4.189 44.909 4.26521 45.0209 4.36172 45.1137L20.1518 60.9038C20.3388 61.0905 20.5911 61.197 20.8553 61.2008C21.124 61.1962 21.3809 61.0901 21.5745 60.9038L47.9017 34.6391C48.0879 34.4491 48.1922 34.1938 48.1922 33.9278C48.1922 33.6618 48.0879 33.4064 47.9017 33.2164Z" fill="#FBB040"/>
<path d="M20.5913 47.2898H20.3725L11.2424 38.1596C11.0524 37.9735 10.797 37.8691 10.531 37.8691C10.265 37.8691 10.0096 37.9735 9.81968 38.1596L4.3635 43.6158C4.26705 43.7091 4.19035 43.8209 4.13797 43.9444C4.08559 44.068 4.05859 44.2008 4.05859 44.335C4.05859 44.4692 4.08559 44.602 4.13797 44.7256C4.19035 44.8491 4.26705 44.9608 4.3635 45.0541L19.9972 60.7661C20.1361 60.9078 20.3171 61.0011 20.5132 61.0319L20.5913 47.2898Z" fill="#F7941E"/>
<path d="M58.2527 10.3184H18.199C16.4396 10.3226 14.7535 11.0244 13.5109 12.27C12.2682 13.5156 11.5703 15.2033 11.5703 16.9628V24.0761C11.5703 24.3456 11.6774 24.6041 11.868 24.7947C12.0585 24.9853 12.317 25.0924 12.5865 25.0924H63.9278C64.1946 25.0883 64.4491 24.9793 64.6363 24.7892C64.8235 24.5991 64.9284 24.3429 64.9283 24.0761V16.9628C64.9284 16.0876 64.7555 15.221 64.4196 14.4128C64.0837 13.6047 63.5915 12.8708 62.9712 12.2534C62.3509 11.636 61.6148 11.1473 60.805 10.8152C59.9953 10.4831 59.1279 10.3143 58.2527 10.3184Z" fill="#FBB040"/>
</svg>
