<svg width="70" height="70" viewBox="0 0 70 70" fill="none" xmlns="http://www.w3.org/2000/svg">
<path d="M49.4506 38.4978C53.8409 40.6197 56.875 45.1084 56.875 50.3125V64.5312C56.875 65.135 56.385 65.625 55.7812 65.625H14.2188C13.615 65.625 13.125 65.135 13.125 64.5312V50.3125C13.125 45.1084 16.1591 40.6197 20.5494 38.4978C21.0197 38.2703 21.5906 38.4387 21.8969 38.8609L32.8125 53.8672V46.6134L30.7716 43.1616C30.3538 42.455 30.8634 41.5625 31.6838 41.5625H38.3184C39.1388 41.5625 39.6484 42.455 39.2306 43.1616L37.1875 46.6134V53.8672L48.1009 38.8587C48.4094 38.4388 48.9803 38.2703 49.4506 38.4978ZM54.6875 24.0625C54.6875 27.5231 53.7753 30.9291 52.0516 33.9084C51.6622 34.5844 50.9403 35 50.1594 35H43.9928C43.3913 35.6672 42.5316 36.0938 41.5625 36.0938C39.7512 36.0938 38.2812 34.6238 38.2812 32.8125C38.2812 31.0012 39.7512 29.5312 41.5625 29.5312C42.5316 29.5312 43.3913 29.9578 43.9928 30.625H48.8381C49.8072 28.5863 50.3125 26.3419 50.3125 24.0625C50.3125 15.6188 43.4438 8.75 35 8.75C28.0087 8.75 21.9122 13.4706 20.1709 20.2322C20.0812 20.5756 19.6875 22.1791 19.6875 22.1791C19.6875 22.1791 19.6875 27.0463 19.6875 28.2013C19.6875 29.4109 18.7075 30.3997 17.5 30.3997C15.0063 30.3997 13.125 28.6147 13.125 26.2478V21.8728C13.125 19.8472 14.5097 18.1366 16.3822 17.6422C19.0925 9.75844 26.5366 4.375 35 4.375C45.8544 4.375 54.6875 13.2081 54.6875 24.0625Z" fill="#013177"/>
<path d="M48.125 24.0625C48.125 24.9419 48.0353 25.8234 47.8625 26.6831C47.6241 27.8688 46.4669 28.6388 45.2856 28.3938C44.1 28.1531 43.3344 26.9981 43.575 25.8147C43.6909 25.2416 43.75 24.6509 43.75 24.0625C43.75 23.205 43.5881 22.3934 43.3562 21.6103C40.6416 21.0591 38.9769 19.6109 38.0778 17.6509C36.5444 20.1731 33.7947 21.875 30.625 21.875H26.5606C26.3769 22.5794 26.25 23.3034 26.25 24.0625C26.25 28.2078 29.1922 31.815 33.2478 32.6397C34.4313 32.8781 35.1969 34.0353 34.9562 35.2188C34.7178 36.3956 33.5672 37.1678 32.3772 36.925C26.2916 35.6891 21.875 30.2794 21.875 24.0625C21.875 16.8241 27.7616 10.9375 35 10.9375C42.2384 10.9375 48.125 16.8241 48.125 24.0625Z" fill="#F6AD55"/>
</svg>
