<svg width="70" height="70" viewBox="0 0 70 70" fill="none" xmlns="http://www.w3.org/2000/svg">
<path d="M25.8336 12.1208C25.5552 12.1212 25.2774 12.0951 25.0039 12.043V15.3874C25.0293 15.5912 25.1284 15.7788 25.2823 15.9147C25.4363 16.0507 25.6346 16.1257 25.84 16.1257C26.0454 16.1257 26.2438 16.0507 26.3978 15.9147C26.5517 15.7788 26.6507 15.5912 26.6761 15.3874V12.043C26.3983 12.0952 26.1162 12.1212 25.8336 12.1208Z" fill="#013177"/>
<path d="M25.8356 12.9622C24.81 12.9622 23.8075 12.6581 22.9548 12.0883C22.1021 11.5185 21.4375 10.7087 21.0451 9.76127C20.6526 8.8138 20.55 7.77123 20.75 6.7654C20.9501 5.75957 21.4439 4.83566 22.1691 4.1105C22.8942 3.38534 23.8182 2.8915 24.824 2.69143C25.8298 2.49136 26.8724 2.59404 27.8198 2.9865C28.7673 3.37895 29.5771 4.04355 30.1469 4.89625C30.7166 5.74895 31.0208 6.75145 31.0208 7.77698C31.0208 9.15218 30.4745 10.471 29.5021 11.4435C28.5296 12.4159 27.2108 12.9622 25.8356 12.9622ZM25.8356 4.30291C25.1428 4.30292 24.4656 4.50852 23.8897 4.89368C23.3139 5.27884 22.8653 5.82623 22.6008 6.46653C22.3362 7.10682 22.2677 7.81122 22.4038 8.49051C22.5399 9.16979 22.8745 9.7934 23.3653 10.2824C23.8561 10.7713 24.4809 11.1037 25.1607 11.2372C25.8405 11.3708 26.5447 11.2996 27.184 11.0327C27.8233 10.7659 28.369 10.3152 28.752 9.73796C29.1351 9.16068 29.3381 8.48272 29.3356 7.78994C29.3322 6.86393 28.9619 5.97702 28.3059 5.32344C27.6499 4.66987 26.7616 4.3029 25.8356 4.30291Z" fill="#013177"/>
<path d="M15.3362 20.0005L12.0825 15.606C12.0173 15.5161 11.9346 15.4402 11.8394 15.3828C11.7442 15.3254 11.6384 15.2877 11.5284 15.272C11.4184 15.2563 11.3063 15.2628 11.1988 15.2913C11.0914 15.3197 10.9908 15.3694 10.9029 15.4375L7.01401 18.2894C6.92481 18.3523 6.84985 18.4333 6.79402 18.5271C6.73819 18.6209 6.70272 18.7254 6.68994 18.8338C6.67253 18.9427 6.67733 19.0539 6.70406 19.1608C6.73079 19.2678 6.77891 19.3682 6.84549 19.456L10.0992 23.8505C10.1776 23.9551 10.2795 24.0401 10.3965 24.0986C10.5135 24.1571 10.6425 24.1875 10.7733 24.1875C10.9519 24.1896 11.1259 24.1301 11.2659 24.019L15.1548 21.1672C15.3274 21.0273 15.4427 20.8289 15.4788 20.6097C15.5099 20.3959 15.459 20.1783 15.3362 20.0005Z" fill="#013177"/>
<path d="M44.7353 18.2912L40.8464 15.4394C40.7621 15.371 40.664 15.3217 40.5588 15.2949C40.4537 15.268 40.3439 15.2642 40.2371 15.2838C40.1269 15.2964 40.0205 15.3317 39.9245 15.3875C39.8286 15.4433 39.7452 15.5183 39.6797 15.6079L36.4261 20.0023C36.296 20.1802 36.2408 20.402 36.2723 20.62C36.3038 20.8381 36.4195 21.0352 36.5945 21.169L40.4834 24.0209C40.6284 24.132 40.8064 24.1913 40.989 24.1894H41.1057C41.2159 24.1768 41.3224 24.1415 41.4183 24.0857C41.5142 24.0299 41.5976 23.9549 41.6631 23.8653L44.9168 19.4709C44.9825 19.3816 45.0299 19.2802 45.0564 19.1725C45.0828 19.0648 45.0878 18.953 45.0709 18.8434C45.054 18.7338 45.0157 18.6286 44.9581 18.5339C44.9005 18.4391 44.8248 18.3567 44.7353 18.2912Z" fill="#013177"/>
<path d="M44.113 22.4535C39.8885 18.2246 34.3284 15.5914 28.38 15.0026C22.4316 14.4138 16.4632 15.9059 11.4916 19.2245C6.52009 22.5432 2.8531 27.483 1.11557 33.2023C-0.621964 38.9217 -0.322504 45.0665 1.96286 50.5898C4.24822 56.1131 8.37811 60.673 13.6488 63.4926C18.9194 66.3121 25.0046 67.2168 30.8676 66.0525C36.7305 64.8882 42.0083 61.7269 45.8016 57.1073C49.5949 52.4877 51.669 46.6957 51.6704 40.7183C51.6804 37.3255 51.0177 33.9643 49.7205 30.8292C48.4233 27.6941 46.5174 24.8473 44.113 22.4535Z" fill="#074EA3"/>
<path d="M44.4326 43.7404C46.1054 33.4806 39.1443 23.8074 28.8845 22.1347C18.6247 20.4619 8.95152 27.423 7.27878 37.6828C5.60603 47.9426 12.5672 57.6158 22.8269 59.2885C33.0867 60.9613 42.7599 54.0001 44.4326 43.7404Z" fill="white"/>
<path d="M25.8342 60.3682C21.948 60.3656 18.1498 59.2109 14.9198 57.0499C11.6897 54.889 9.17294 51.8189 7.68752 48.2278C6.20211 44.6367 5.81477 40.6857 6.5745 36.8745C7.33424 33.0633 9.20691 29.5628 11.9558 26.8158C14.7047 24.0687 18.2063 22.1983 22.0181 21.4411C25.8298 20.6839 29.7804 21.0738 33.3706 22.5616C36.9607 24.0494 40.0292 26.5682 42.188 29.7997C44.3468 33.0311 45.499 36.8301 45.499 40.7163C45.4922 45.9285 43.4177 50.925 39.731 54.6093C36.0442 58.2936 31.0463 60.3647 25.8342 60.3682ZM25.8342 22.7756C22.2787 22.7781 18.8038 23.8348 15.8488 25.812C12.8938 27.7892 10.5913 30.5981 9.23245 33.8837C7.8736 37.1692 7.51936 40.7839 8.21458 44.2708C8.90979 47.7577 10.6232 50.9601 13.1382 53.4733C15.6532 55.9865 18.8569 57.6976 22.3443 58.3903C25.8316 59.083 29.4461 58.7262 32.7307 57.365C36.0153 56.0038 38.8225 53.6993 40.7976 50.7428C42.7726 47.7864 43.8268 44.3107 43.8268 40.7552C43.8302 38.3902 43.3673 36.0477 42.4646 33.8618C41.562 31.6758 40.2372 29.6893 38.5661 28.0158C36.895 26.3423 34.9103 25.0146 32.7257 24.1088C30.541 23.2029 28.1992 22.7367 25.8342 22.7367V22.7756Z" fill="#013177"/>
<path d="M25.8361 21.0646C25.6161 21.0646 25.4051 21.152 25.2495 21.3076C25.0939 21.4631 25.0065 21.6742 25.0065 21.8942V26.9238C24.9917 27.0424 25.0023 27.1627 25.0376 27.2768C25.0728 27.3909 25.1319 27.4963 25.211 27.5858C25.2901 27.6754 25.3873 27.7471 25.4961 27.7962C25.605 27.8453 25.7232 27.8707 25.8426 27.8707C25.9621 27.8707 26.0801 27.8453 26.189 27.7962C26.2979 27.7471 26.3952 27.6754 26.4742 27.5858C26.5533 27.4963 26.6124 27.3909 26.6477 27.2768C26.6829 27.1627 26.6935 27.0424 26.6787 26.9238V21.8942C26.6787 21.7841 26.6568 21.6752 26.6143 21.5737C26.5718 21.4722 26.5096 21.3801 26.4311 21.3029C26.3527 21.2257 26.2597 21.1649 26.1576 21.1239C26.0554 21.083 25.9462 21.0628 25.8361 21.0646Z" fill="#013177"/>
<path d="M25.8336 53.666C25.6123 53.6694 25.4014 53.7597 25.2461 53.9173C25.0909 54.075 25.0039 54.2874 25.0039 54.5086V59.5382C25.0293 59.7421 25.1284 59.9296 25.2823 60.0655C25.4363 60.2015 25.6346 60.2765 25.84 60.2765C26.0454 60.2765 26.2438 60.2015 26.3978 60.0655C26.5517 59.9296 26.6507 59.7421 26.6761 59.5382V54.5086C26.6761 54.398 26.6544 54.2884 26.612 54.1862C26.5697 54.0839 26.5076 53.9911 26.4294 53.9128C26.3511 53.8346 26.2582 53.7725 26.156 53.7302C26.0538 53.6878 25.9442 53.666 25.8336 53.666Z" fill="#013177"/>
<path d="M44.6696 39.873H39.64C39.4188 39.8765 39.2078 39.9667 39.0526 40.1244C38.8974 40.282 38.8104 40.4944 38.8104 40.7157C38.8104 40.9357 38.8978 41.1467 39.0534 41.3023C39.209 41.4579 39.42 41.5453 39.64 41.5453H44.6696C44.7797 41.547 44.889 41.5268 44.9911 41.4859C45.0933 41.445 45.1863 41.3841 45.2647 41.3069C45.3431 41.2297 45.4054 41.1377 45.4479 41.0361C45.4904 40.9346 45.5122 40.8257 45.5122 40.7157C45.5122 40.4922 45.4235 40.2779 45.2655 40.1198C45.1074 39.9618 44.8931 39.873 44.6696 39.873Z" fill="#013177"/>
<path d="M12.0546 39.873H7.03797C6.8145 39.873 6.60018 39.9618 6.44216 40.1198C6.28414 40.2779 6.19538 40.4922 6.19538 40.7157C6.19537 40.8257 6.21725 40.9346 6.25975 41.0361C6.30225 41.1377 6.36453 41.2297 6.44295 41.3069C6.52137 41.3841 6.61435 41.445 6.71651 41.4859C6.81866 41.5268 6.92794 41.547 7.03797 41.5453H12.0546C12.1647 41.547 12.2739 41.5268 12.3761 41.4859C12.4782 41.445 12.5713 41.3841 12.6497 41.3069C12.7281 41.2297 12.7903 41.1377 12.8329 41.0361C12.8754 40.9346 12.8972 40.8257 12.8972 40.7157C12.8972 40.4922 12.8085 40.2779 12.6504 40.1198C12.4924 39.9618 12.2781 39.873 12.0546 39.873Z" fill="#013177"/>
<path d="M37.2287 28.493C37.1189 28.3964 36.9859 28.3301 36.8427 28.3006C36.6995 28.271 36.5511 28.2793 36.412 28.3244C29.3602 30.6059 25.251 39.9911 25.0824 40.38C25.0115 40.5392 24.9933 40.717 25.0306 40.8872C25.068 41.0575 25.1588 41.2113 25.2898 41.3263C25.3635 41.3981 25.4507 41.4545 25.5464 41.4923C25.6421 41.5302 25.7444 41.5486 25.8472 41.5467C25.9865 41.5491 26.1244 41.518 26.2491 41.4559C28.0319 40.4517 29.7235 39.2936 31.3046 37.9948C34.8306 35.1041 36.9046 32.1744 37.488 29.2837C37.5169 29.1407 37.5082 28.9927 37.4628 28.8541C37.4173 28.7155 37.3367 28.591 37.2287 28.493Z" fill="#F7941E"/>
<path d="M69.6361 43.2318L64.7231 38.254C64.6459 38.176 64.5541 38.1141 64.4529 38.0718C64.3516 38.0296 64.243 38.0078 64.1333 38.0078C64.0236 38.0078 63.915 38.0296 63.8137 38.0718C63.7125 38.1141 63.6206 38.176 63.5434 38.254L46.8342 54.9114L39.3027 47.3799C39.1452 47.2255 38.9334 47.1391 38.7129 47.1391C38.4923 47.1391 38.2806 47.2255 38.1231 47.3799L33.612 51.904C33.4576 52.0615 33.3711 52.2733 33.3711 52.4938C33.3711 52.7144 33.4576 52.9261 33.612 53.0836L46.7046 66.1762C46.7796 66.2553 46.8701 66.3179 46.9705 66.3603C47.0709 66.4027 47.1789 66.4239 47.2879 66.4225C47.3988 66.4241 47.5089 66.4031 47.6114 66.3608C47.7139 66.3184 47.8068 66.2556 47.8842 66.1762L69.649 44.4114C69.7278 44.3343 69.7901 44.242 69.8323 44.1402C69.8744 44.0384 69.8956 43.929 69.8943 43.8188C69.8931 43.7086 69.8696 43.5998 69.8252 43.4989C69.7808 43.398 69.7165 43.3071 69.6361 43.2318Z" fill="#FBB040"/>
<path d="M47.0546 54.8972H46.8731L39.3027 47.3268C39.1452 47.1724 38.9334 47.0859 38.7129 47.0859C38.4923 47.0859 38.2806 47.1724 38.1231 47.3268L33.612 51.9027C33.4576 52.0602 33.3711 52.272 33.3711 52.4925C33.3711 52.7131 33.4576 52.9249 33.612 53.0824L46.5749 66.1101C46.687 66.234 46.8378 66.3163 47.0027 66.3435L47.0546 54.8972Z" fill="#F7941E"/>
</svg>
